<svg width="100" height="100" viewBox="0 0 100 100" fill="none" xmlns="http://www.w3.org/2000/svg">
<rect x="0.5" y="0.5" width="99" height="99" rx="49.5" stroke="#444E27"/>
<path d="M26.5898 50.609C25.6001 51.3974 24.0992 53.0325 22.8928 53.2933C22.1358 53.4568 19.2723 53.449 18.5085 53.2965C16.7055 52.9375 15.6885 50.8159 16.7724 49.2279C17.2256 48.5641 18.0059 48.0577 18.6163 47.5412L44.5238 25.5388C45.6722 24.5535 48.0448 22.1611 49.4532 21.8892C51.0399 21.7624 52.3884 23.5534 53.491 24.4514C56.3783 26.8027 59.4147 29.3328 62.1977 31.8163L62.1929 29.3634C62.1919 28.3682 61.9625 27.1301 63.3302 27.0607C64.71 26.9906 66.1099 27.0364 67.4915 27.0364C72.082 27.0367 71.2092 27.0397 71.2087 31.4894L71.2067 39.4492C72.467 40.585 73.7811 41.6519 75.0774 42.7457L80.994 47.7442C82.4387 48.9438 83.9869 50.2275 82.4923 52.3142C81.5171 53.6758 79.9324 53.3659 78.4923 53.3847C75.1148 53.4277 75.0961 52.3332 72.7073 50.6085L72.7086 73.7145C72.7147 77.3071 73.4317 77.5578 69.4668 77.5591L54.9701 77.5586L30.526 77.5596C26.39 77.5639 26.5868 78.2065 26.588 73.6661L26.5893 50.6088L26.5898 50.609ZM49.656 23.8873C48.2311 24.7319 45.6079 27.2701 44.201 28.4603L20.0903 48.9527C18.4634 50.3414 16.7516 51.3268 20.4537 51.3506C22.6457 51.365 22.3961 51.5081 24.1732 50.0069L44.3584 32.8454C46.1241 31.3613 47.8473 29.7979 49.656 28.3682C52.2643 30.4914 54.7918 32.7361 57.347 34.9238L74.3054 49.2757C75.1255 49.969 75.967 50.7885 76.8732 51.3589C77.9234 51.3627 82.9627 51.9458 80.2193 49.69C76.8261 46.9001 73.501 44.0197 70.1585 41.1691L52.6016 26.2662C52.024 25.7791 50.2366 24.0947 49.656 23.8878V23.8873ZM64.1158 29.0439C64.1138 30.4772 64.0442 31.9444 64.1158 33.3736C65.5764 34.7724 67.5563 36.3819 69.1516 37.6749V29.0439H64.1158ZM49.656 31.0071C48.261 32.1578 46.9022 33.346 45.5226 34.5144L31.3408 46.5512C30.4238 47.325 29.486 48.0855 28.6008 48.8952V75.5526H40.6182L40.6159 69.3043C40.6156 68.1369 40.052 65.3774 41.7066 65.4197C43.1095 65.4554 42.6439 68.3275 42.6434 69.1911C42.6424 71.3108 42.6206 73.4332 42.6449 75.5526H56.6935L56.691 69.3144C56.691 68.3814 56.5996 67.171 56.7297 66.2646C56.8998 65.0764 58.5331 65.1245 58.699 66.2717C58.8162 67.0836 58.7286 68.3465 58.7281 69.1934L58.7248 75.5526H70.7295V48.8952C69.4418 47.7172 68.0406 46.671 66.719 45.5329L50.6371 31.8241C50.3548 31.5851 49.9804 31.1613 49.656 31.0073V31.0071Z" fill="#444E27"/>
<path d="M46.5023 50.3985C42.4031 50.6304 40.9045 43.9481 45.1549 43.3939C48.6855 43.0349 50.7333 49.682 46.5023 50.3985ZM45.1549 45.353C43.8057 46.1432 44.9645 48.6323 46.5023 48.4915C47.7784 47.7289 46.4935 45.3092 45.1549 45.353Z" fill="#444E27"/>
<path d="M53.3175 50.398C49.0795 50.3722 49.7963 43.794 53.9619 43.3935C58.1181 43.3046 57.3621 49.9132 53.3175 50.398ZM53.8178 45.3526C52.2575 45.9 51.7422 48.5252 53.3175 48.4911C54.8404 47.9259 55.4341 45.0731 53.8178 45.3526Z" fill="#444E27"/>
<path d="M41.349 55.7107C36.9707 56.1515 35.1536 49.5445 39.1708 49.1361C42.4895 48.1001 45.9807 54.9236 41.349 55.7107ZM39.5149 51.0507C37.7297 51.6839 39.8562 53.7179 40.9991 53.9299C42.607 53.1939 40.9066 50.8727 39.5149 51.0507Z" fill="#444E27"/>
<path d="M58.5902 55.8689C54.0362 56.2203 55.0897 49.5203 59.3369 49.1362C63.2835 48.9023 63.0376 55.1974 58.5902 55.8689ZM59.3369 51.0508C57.6631 51.5473 56.7805 54.1513 58.5902 53.93C60.2455 53.177 60.8091 50.9427 59.3369 51.0508Z" fill="#444E27"/>
<path d="M49.8645 62.5656C48.3535 62.5147 47.4104 63.6637 45.7703 63.7578C41.9617 63.9768 40.341 59.4558 43.0362 57.0232C43.7987 56.3353 43.9859 56.0591 44.3595 55.1218C45.1806 53.0631 47.0722 51.6375 49.3126 51.5552C51.0691 51.0607 53.6 52.9426 54.3942 54.4498C54.6714 54.9762 54.8226 55.6281 55.1477 56.114C55.4821 56.6135 56.0624 56.9432 56.4468 57.4194C58.9733 60.5493 55.7751 65.2423 51.7902 63.355C51.1757 63.0639 50.6167 62.6547 49.9253 62.5722L49.8645 62.5656ZM49.3126 53.3784C46.4848 53.849 46.6119 55.778 45.3756 57.5106C44.953 58.1033 44.2238 58.419 43.862 59.0545C43.4058 59.8553 43.7509 61.0268 44.5034 61.5271C45.8592 62.4291 47.7433 60.5394 49.8645 60.6032C51.7993 60.7961 53.3946 62.5259 54.6917 61.4265C56.6587 59.7593 54.2484 58.3711 53.6187 57.4576C52.2594 55.4856 52.9032 53.8179 49.3126 53.3781V53.3784Z" fill="#444E27"/>
</svg>
