<svg width="51" height="51" viewBox="0 0 51 51" fill="none" xmlns="http://www.w3.org/2000/svg">
<g clip-path="url(#clip0_448_1454)">
<path d="M47.7476 44.3154C46.5114 44.3154 39.1913 44.3154 37.9609 44.3154V46.4893H47.7476V44.3154Z" fill="#444E27"/>
<path d="M27.5887 7.42585C27.5887 7.46152 27.5878 7.49706 27.5861 7.53259C27.5843 7.56813 27.5817 7.60354 27.5782 7.63895C27.5747 7.67435 27.5705 7.70963 27.5651 7.74491C27.5599 7.78006 27.5538 7.81508 27.547 7.84997C27.54 7.88486 27.5322 7.91962 27.5235 7.95412C27.5149 7.98862 27.5055 8.02286 27.4951 8.05697C27.4847 8.09095 27.4736 8.1248 27.4616 8.15826C27.4496 8.19173 27.4367 8.22493 27.4231 8.25774C27.4095 8.29069 27.3951 8.32324 27.3799 8.35541C27.3647 8.38744 27.3487 8.41922 27.3319 8.45061C27.3152 8.48199 27.2976 8.51299 27.2793 8.54347C27.261 8.57395 27.2419 8.60404 27.2222 8.63361C27.2025 8.66319 27.182 8.69224 27.1607 8.7209C27.1396 8.74944 27.1177 8.77745 27.0951 8.80495C27.0725 8.83244 27.0493 8.85942 27.0253 8.88575C27.0015 8.91221 26.9769 8.93789 26.9518 8.96305C26.9266 8.98821 26.9008 9.01273 26.8745 9.03659C26.848 9.06059 26.8212 9.0838 26.7937 9.10637C26.7661 9.12894 26.738 9.15073 26.7095 9.172C26.6808 9.19314 26.6518 9.21363 26.6222 9.23347C26.5926 9.25319 26.5626 9.27225 26.5321 9.29054C26.5015 9.30883 26.4705 9.32634 26.4391 9.34307C26.4077 9.3598 26.3759 9.37589 26.3438 9.39106C26.3116 9.40623 26.279 9.42063 26.2462 9.43425C26.2133 9.44787 26.1801 9.46071 26.1466 9.47277C26.1131 9.4847 26.0793 9.49586 26.0453 9.50623C26.0112 9.51648 25.977 9.52595 25.9423 9.53464C25.9078 9.54333 25.8732 9.55111 25.8382 9.55798C25.8033 9.56499 25.7683 9.57108 25.7331 9.57627C25.6978 9.58146 25.6626 9.58587 25.6272 9.58937C25.5918 9.59274 25.5562 9.59547 25.5207 9.59715C25.4851 9.59897 25.4496 9.59975 25.4139 9.59975C25.3784 9.59975 25.3429 9.59897 25.3073 9.59715C25.2717 9.59547 25.2362 9.59274 25.2008 9.58937C25.1654 9.58587 25.13 9.58146 25.0949 9.57627C25.0597 9.57108 25.0246 9.56499 24.9897 9.55798C24.9548 9.55111 24.92 9.54333 24.8855 9.53464C24.851 9.52595 24.8167 9.51648 24.7827 9.50623C24.7486 9.49586 24.7149 9.4847 24.6813 9.47277C24.6478 9.46071 24.6146 9.44787 24.5818 9.43425C24.5488 9.42063 24.5163 9.40623 24.4841 9.39106C24.452 9.37589 24.4202 9.3598 24.3888 9.34307C24.3574 9.32634 24.3264 9.30883 24.2959 9.29054C24.2654 9.27225 24.2354 9.25319 24.2058 9.23347C24.1762 9.21363 24.147 9.19314 24.1185 9.172C24.0898 9.15073 24.0618 9.12894 24.0343 9.10637C24.0068 9.0838 23.9798 9.06059 23.9535 9.03659C23.9271 9.01273 23.9014 8.98821 23.8762 8.96305C23.8511 8.93789 23.8265 8.91221 23.8025 8.88575C23.7787 8.85942 23.7555 8.83244 23.7329 8.80495C23.7103 8.77745 23.6884 8.74944 23.6671 8.7209C23.646 8.69224 23.6255 8.66319 23.6058 8.63361C23.5859 8.60404 23.5669 8.57395 23.5486 8.54347C23.5303 8.51299 23.5128 8.48199 23.4961 8.45061C23.4792 8.41922 23.4632 8.38744 23.4481 8.35528C23.4328 8.32324 23.4184 8.29069 23.4048 8.25774C23.3911 8.22493 23.3783 8.19173 23.3664 8.15826C23.3543 8.1248 23.3431 8.09095 23.3329 8.05697C23.3225 8.02286 23.3131 7.98862 23.3044 7.95412C23.2957 7.91962 23.2879 7.88486 23.281 7.84997C23.274 7.81508 23.2679 7.78006 23.2627 7.74491C23.2575 7.70963 23.2531 7.67435 23.2496 7.63895C23.2463 7.60354 23.2435 7.56813 23.2419 7.53259C23.24 7.49706 23.2393 7.46152 23.2393 7.42585C23.2393 7.39031 23.24 7.35477 23.2419 7.31924C23.2435 7.2837 23.2463 7.24816 23.2496 7.21275C23.2531 7.17735 23.2575 7.14207 23.2627 7.10692C23.2679 7.07177 23.274 7.03662 23.281 7.00173C23.2879 6.96684 23.2957 6.93221 23.3044 6.89771C23.3131 6.86321 23.3225 6.82884 23.3329 6.79486C23.3431 6.76075 23.3543 6.72703 23.3664 6.69357C23.3783 6.65997 23.3911 6.62677 23.4048 6.59396C23.4184 6.56114 23.4328 6.52859 23.4481 6.49642C23.4632 6.46426 23.4792 6.43248 23.4961 6.40109C23.5128 6.36971 23.5303 6.33884 23.5486 6.30823C23.5669 6.27775 23.5859 6.24766 23.6058 6.21809C23.6255 6.18851 23.646 6.15946 23.6671 6.13093C23.6884 6.10226 23.7103 6.07425 23.7329 6.04675C23.7555 6.01926 23.7787 5.99228 23.8025 5.96595C23.8265 5.93962 23.8511 5.91381 23.8762 5.88865C23.9014 5.86349 23.9271 5.83897 23.9535 5.81511C23.9798 5.79124 24.0068 5.76803 24.0343 5.74546C24.0618 5.72289 24.0898 5.70097 24.1185 5.67983C24.147 5.65856 24.1762 5.63807 24.2058 5.61835C24.2354 5.59864 24.2654 5.57957 24.2959 5.56129C24.3264 5.543 24.3574 5.52549 24.3888 5.50863C24.4202 5.4919 24.452 5.47594 24.4841 5.46064C24.5163 5.44547 24.5488 5.43107 24.5818 5.41745C24.6146 5.40383 24.6478 5.39099 24.6813 5.37906C24.7149 5.36713 24.7486 5.35597 24.7827 5.3456C24.8167 5.33522 24.851 5.32575 24.8855 5.31706C24.92 5.3085 24.9548 5.30072 24.9897 5.29372C25.0246 5.28684 25.0597 5.28075 25.0949 5.27556C25.13 5.27024 25.1654 5.26596 25.2008 5.26246C25.2362 5.25896 25.2717 5.25636 25.3073 5.25455C25.3429 5.25286 25.3784 5.25195 25.4139 5.25195C25.4496 5.25195 25.4851 5.25286 25.5207 5.25455C25.5562 5.25636 25.5918 5.25896 25.6272 5.26246C25.6626 5.26596 25.6978 5.27024 25.7331 5.27556C25.7683 5.28075 25.8033 5.28684 25.8382 5.29372C25.8732 5.30072 25.9078 5.3085 25.9423 5.31706C25.977 5.32575 26.0112 5.33522 26.0453 5.3456C26.0793 5.35597 26.1131 5.36713 26.1466 5.37906C26.1801 5.39099 26.2133 5.40383 26.2462 5.41745C26.279 5.43107 26.3116 5.44547 26.3438 5.46064C26.3759 5.47594 26.4077 5.4919 26.4391 5.50863C26.4705 5.52549 26.5015 5.543 26.5321 5.56129C26.5626 5.57957 26.5926 5.59864 26.6222 5.61835C26.6518 5.63807 26.6808 5.65856 26.7095 5.67983C26.738 5.70097 26.7661 5.72289 26.7937 5.74546C26.8212 5.76803 26.848 5.79124 26.8745 5.81511C26.9008 5.83897 26.9266 5.86349 26.9518 5.88865C26.9769 5.91381 27.0015 5.93962 27.0253 5.96595C27.0493 5.99228 27.0725 6.01926 27.0951 6.04675C27.1177 6.07425 27.1396 6.10226 27.1607 6.13093C27.182 6.15946 27.2025 6.18851 27.2222 6.21809C27.2419 6.24766 27.261 6.27775 27.2793 6.30823C27.2976 6.33884 27.3152 6.36971 27.3319 6.40109C27.3487 6.43248 27.3647 6.46426 27.3799 6.49642C27.3951 6.52859 27.4095 6.56114 27.4231 6.59396C27.4367 6.62677 27.4496 6.65997 27.4616 6.69357C27.4736 6.72703 27.4847 6.76075 27.4951 6.79486C27.5055 6.82884 27.5149 6.86321 27.5235 6.89771C27.5322 6.93221 27.54 6.96684 27.547 7.00173C27.5538 7.03662 27.5599 7.07177 27.5651 7.10692C27.5705 7.14207 27.5747 7.17735 27.5782 7.21275C27.5817 7.24816 27.5843 7.2837 27.5861 7.31924C27.5878 7.35477 27.5887 7.39031 27.5887 7.42585Z" fill="#444E27"/>
<path d="M22.7373 24.75H28.1743V42.1414H22.7373V24.75Z" fill="#444E27"/>
<path d="M40.1357 24.75H45.5728V42.1414H40.1357V24.75Z" fill="#444E27"/>
<path d="M30.3491 20.4023H20.5625V22.5764C21.7985 22.5764 29.1187 22.5764 30.3491 22.5764V20.4023Z" fill="#444E27"/>
<path d="M37.9609 22.5762C39.1931 22.5762 46.5124 22.5762 47.7474 22.5762V20.4023H37.9609V22.5762Z" fill="#444E27"/>
<path d="M30.3491 44.3154C29.113 44.3154 21.7928 44.3154 20.5625 44.3154V46.4893H30.3491V44.3154Z" fill="#444E27"/>
<path d="M25.4134 0.00292969L2.64453 13.8807H48.1825L25.4134 0.00292969ZM25.4134 11.7736C23.0152 11.7736 21.0638 9.82301 21.0638 7.42564C21.0638 5.02828 23.0152 3.07772 25.4134 3.07772C27.8119 3.07772 29.7631 5.02828 29.7631 7.42564C29.7631 9.82314 27.8119 11.7736 25.4134 11.7736Z" fill="#444E27"/>
<path d="M5.33887 24.75H10.7759V42.1414H5.33887V24.75Z" fill="#444E27"/>
<path d="M12.9506 44.3154C11.7145 44.3154 4.39439 44.3154 3.16406 44.3154V46.4893H12.9506V44.3154Z" fill="#444E27"/>
<mask id="mask0_448_1454" style="mask-type:luminance" maskUnits="userSpaceOnUse" x="0" y="48" width="51" height="3">
<path d="M0 48.6426H51V50.8506H0V48.6426Z" fill="white"/>
</mask>
<g mask="url(#mask0_448_1454)">
<path d="M-0.0976562 48.6641V50.8381H51.01V48.6641C37.6101 48.6641 9.04306 48.6641 -0.0976562 48.6641Z" fill="#444E27"/>
</g>
<path d="M12.9087 22.5762V20.4023H3.12207V22.5762C4.38664 22.5762 11.7362 22.5762 12.9087 22.5762Z" fill="#444E27"/>
<path d="M50.9679 18.2286V16.0547H-0.139648V18.2286C9.78899 18.2286 40.851 18.2286 50.9679 18.2286Z" fill="#444E27"/>
</g>
<defs>
<clipPath id="clip0_448_1454">
<rect width="51" height="51" fill="white"/>
</clipPath>
</defs>
</svg>
