<svg width="74" height="52" viewBox="0 0 74 52" fill="none" xmlns="http://www.w3.org/2000/svg">
<mask id="mask0_448_1477" style="mask-type:luminance" maskUnits="userSpaceOnUse" x="0" y="0" width="74" height="52">
<path d="M0 0H74V51.417H0V0Z" fill="white"/>
</mask>
<g mask="url(#mask0_448_1477)">
<path d="M8.07113 0C3.65145 0 0.0351562 3.61535 0.0351562 8.0339V43.3831C0.0351562 47.8018 3.65145 51.417 8.07113 51.417H65.9299C70.3496 51.417 73.9659 47.8018 73.9659 43.3831V8.0339C73.9659 3.61535 70.3496 0 65.9299 0H8.07113ZM8.07113 3.21356H65.9299C68.6107 3.21356 70.7514 5.35387 70.7514 8.0339V11.2475H3.24966V8.0339C3.24966 5.35387 5.39034 3.21356 8.07113 3.21356ZM3.24966 19.2814H70.7514V43.3831C70.7514 46.0633 68.6107 48.2034 65.9299 48.2034H8.07113C5.39034 48.2034 3.24966 46.0633 3.24966 43.3831V19.2814ZM11.2856 24.1017V27.3153H37.0005V24.1017H11.2856Z" fill="#444E27"/>
</g>
</svg>
