<svg width="54" height="54" viewBox="0 0 54 54" fill="none" xmlns="http://www.w3.org/2000/svg">
<path d="M46.8898 10.3727C45.7406 9.22296 44.3761 8.31091 42.8743 7.68864C41.3725 7.06637 39.7629 6.74609 38.1373 6.74609C36.5117 6.74609 34.902 7.06637 33.4002 7.68864C31.8984 8.31091 30.534 9.22296 29.3848 10.3727L26.9998 12.7577L24.6148 10.3727C22.2935 8.05139 19.1451 6.7473 15.8623 6.7473C12.5795 6.7473 9.43109 8.05139 7.10978 10.3727C4.78847 12.694 3.48438 15.8424 3.48438 19.1252C3.48437 22.408 4.78847 25.5564 7.10978 27.8777L9.49478 30.2627L26.9998 47.7677L44.5048 30.2627L46.8898 27.8777C48.0395 26.7285 48.9516 25.364 49.5738 23.8623C50.1961 22.3605 50.5164 20.7508 50.5164 19.1252C50.5164 17.4996 50.1961 15.8899 49.5738 14.3882C48.9516 12.8864 48.0395 11.5219 46.8898 10.3727Z" stroke="#223125" stroke-width="2" stroke-linecap="round" stroke-linejoin="round"/>
</svg>
