<svg width="100" height="100" viewBox="0 0 100 100" fill="none" xmlns="http://www.w3.org/2000/svg">
<rect x="0.5" y="0.5" width="99" height="99" rx="49.5" stroke="#444E27"/>
<mask id="mask0_427_3046" style="mask-type:luminance" maskUnits="userSpaceOnUse" x="22" y="23" width="54" height="54">
<path d="M22.5557 23.3066H75.9446V76.6816H22.5557V23.3066Z" fill="white"/>
</mask>
<g mask="url(#mask0_427_3046)">
<path d="M74.4826 46.3479C73.5445 44.2898 71.8652 41.4983 69.9668 39.8356C67.4726 37.6528 64.3331 36.3171 61.5686 36.2626C61.5013 36.2613 61.4284 36.2607 61.3509 36.2607C57.9329 36.2607 57.2871 37.6709 57.2064 38.5113C56.9653 41.015 59.9364 41.3152 60.9136 41.4139C64.2801 41.7527 67.0681 44.076 68.1901 47.476C68.3704 48.012 68.5108 48.5582 68.6115 49.1146C68.712 49.6711 68.7717 50.232 68.7903 50.7972C68.809 51.3623 68.7864 51.9258 68.7229 52.4877C68.659 53.0498 68.5549 53.604 68.4104 54.1507C68.0822 55.3288 67.0026 57.6166 65.1502 58.4736C65.0603 58.3668 64.8053 58.0706 64.7973 58.0615C63.2122 56.2475 61.5113 54.5498 59.694 52.9682C58.3895 51.7898 57.171 50.5283 56.0386 49.1839C54.9062 47.8393 53.8704 46.4241 52.9312 44.9382C51.9533 43.3794 51.1914 41.7214 50.6454 39.9643C50.3214 38.9499 50.0301 37.8406 49.7317 36.474C48.7951 32.1717 47.9388 30.5808 47.7229 30.2266C44.9266 24.214 39.8426 23.3147 37.0564 23.3147C36.4533 23.3104 35.8539 23.3568 35.2587 23.4543C32.2367 23.6926 29.9284 26.8584 29.4987 27.4866C28.2791 28.5244 26.4548 28.7963 25.4637 28.8657C25.2758 28.8766 25.0905 28.9039 24.9077 28.9478C24.7248 28.9918 24.5473 29.0515 24.3752 29.1272C24.2031 29.2032 24.039 29.2935 23.883 29.3987C23.7272 29.504 23.5818 29.622 23.4472 29.7533C23.3659 29.8438 23.2895 29.9384 23.2181 30.037C23.1469 30.1357 23.0809 30.2377 23.0206 30.3434C22.96 30.4491 22.9054 30.5576 22.8565 30.6689C22.8075 30.7804 22.7647 30.8942 22.7278 31.01C22.691 31.1259 22.6604 31.2436 22.636 31.3629C22.6117 31.482 22.5937 31.6023 22.582 31.7234C22.5705 31.8445 22.5653 31.966 22.5666 32.0877C22.5679 32.2093 22.5757 32.3306 22.59 32.4515C22.8739 34.7972 25.4837 36.6954 25.5948 36.7752C25.6159 36.7902 25.6376 36.8045 25.6595 36.8176C26.4948 37.3052 27.9305 37.744 29.9266 38.1207C30.8544 38.2974 32.0421 38.7097 32.5165 39.157C35.8162 42.2657 32.5829 47.976 32.5712 47.9988C32.5015 48.1029 32.4353 48.2095 32.3726 48.318C32.3097 48.4265 32.2506 48.5367 32.1949 48.6491C32.1391 48.7616 32.087 48.8755 32.0386 48.9912C31.9902 49.1068 31.9457 49.2238 31.9047 49.3423C31.8639 49.4608 31.8268 49.5806 31.7936 49.7015C31.7604 49.8223 31.7311 49.9441 31.7057 50.0669C31.6803 50.1897 31.6588 50.313 31.6413 50.4371C31.6239 50.5613 31.6104 50.6858 31.6009 50.8108C31.5913 50.9358 31.5859 51.061 31.5844 51.1865C31.5829 51.3117 31.5855 51.4371 31.592 51.5623C31.5985 51.6873 31.6091 51.8123 31.6237 51.9367C31.6382 52.0613 31.6567 52.1852 31.6792 52.3087C31.7016 52.4319 31.7281 52.5543 31.7584 52.6761C31.7888 52.7976 31.8229 52.9182 31.8611 53.0376C31.8991 53.157 31.941 53.2752 31.9865 53.392C32.0321 53.5087 32.0816 53.6238 32.1345 53.7375C32.5082 54.4462 32.9776 55.0847 33.5427 55.6528C33.8192 55.963 34.0803 56.2566 34.2519 56.4964C34.4709 56.8087 34.6604 57.1379 34.8199 57.4842C34.9796 57.8306 35.107 58.1884 35.202 58.5578C35.8724 61.0411 35.9125 64.0955 35.3259 67.8957C35.2725 68.1055 35.2044 68.3106 35.1213 68.5105C35.0384 68.7106 34.9414 68.9037 34.8303 69.0897C34.7194 69.2757 34.5955 69.4528 34.4587 69.6207C34.3222 69.7887 34.174 69.946 34.0147 70.0927L33.8758 70.2125C32.8798 71.0702 31.3739 72.3664 31.6193 74.1316C31.8496 75.7896 33.9841 76.673 35.4362 76.673C40.3487 76.673 42.0748 72.364 42.1315 72.2158C43.1834 69.8334 42.3539 65.1971 42.2561 64.6761C42.2495 64.6416 42.2409 64.6077 42.23 64.5743C41.0837 61.0215 42.8222 56.5916 42.8394 56.5472C42.8474 56.5272 42.8548 56.5061 42.8613 56.4853C42.8921 56.4024 42.9177 56.318 42.9388 56.2323C42.9596 56.1463 42.9755 56.0595 42.9861 55.9716C42.9967 55.884 43.0024 55.7959 43.0026 55.7075C43.003 55.6192 42.9982 55.5311 42.9883 55.4432C42.9783 55.3553 42.9633 55.2685 42.9431 55.1824C42.9229 55.0962 42.8978 55.0118 42.8678 54.9287C42.8377 54.8455 42.8029 54.7644 42.7634 54.6854C42.7237 54.6064 42.6797 54.5298 42.6313 54.456C41.9093 53.3991 40.3908 53.2286 40.1232 53.2067L37.6462 52.905C37.2439 52.8629 37.1517 52.7151 37.1172 52.6593C37.0438 52.4577 37.0054 52.2496 37.0015 52.035C36.9978 51.8204 37.0291 51.611 37.0952 51.4067C37.4477 51.2041 37.7671 50.9586 38.0538 50.6704C38.3405 50.3822 38.5842 50.0615 38.7851 49.7082C38.8698 49.5801 38.9509 49.456 39.0343 49.3429C39.286 49.0081 39.5894 48.729 39.944 48.5059L42.1328 47.3787C42.1946 47.3468 42.2515 47.3078 42.3036 47.2616C42.3557 47.2153 42.4012 47.1635 42.4403 47.106C42.4794 47.0485 42.5108 46.9868 42.5347 46.9215C42.5584 46.8562 42.5738 46.7889 42.5807 46.7197L42.6842 45.6758C47.5006 47.7972 47.7307 53.6166 47.5881 56.1324C47.5824 56.3097 47.5818 56.4873 47.5868 56.6648C47.5916 56.8423 47.6015 57.0194 47.6169 57.1962C47.6324 57.3731 47.6532 57.5495 47.679 57.7251C47.7051 57.9007 47.7361 58.0754 47.7725 58.2492C47.8088 58.423 47.8505 58.5955 47.8971 58.7668C47.9438 58.9382 47.9954 59.1079 48.0523 59.2761C48.1091 59.4443 48.1708 59.6107 48.2376 59.7752C48.3042 59.9397 48.3758 60.1023 48.4522 60.2624C48.5288 60.4228 48.6098 60.5806 48.6957 60.736C48.7817 60.8913 48.8719 61.0441 48.967 61.1941C49.062 61.3442 49.1614 61.4912 49.2652 61.6353C49.3689 61.7794 49.477 61.9202 49.589 62.058C49.7012 62.1956 49.8175 62.3297 49.9377 62.4603C50.0577 62.5912 50.1818 62.7182 50.3097 62.8414C50.4373 62.9647 50.5688 63.0843 50.7035 63.1997C50.8385 63.3152 50.9768 63.4265 51.1183 63.5337C52.8693 64.7644 54.636 66.9382 54.636 69.0209V70.6761H52.3285C52.2916 70.6761 52.255 70.6784 52.2185 70.6834C48.6799 71.1557 47.6643 74.2475 47.6215 75.8165C47.6204 75.872 47.625 75.9271 47.6347 75.9816C47.6447 76.0363 47.6599 76.0895 47.6803 76.1411C47.7007 76.1928 47.7261 76.242 47.7563 76.2887C47.7864 76.3351 47.8209 76.3785 47.8596 76.4182C47.8982 76.4582 47.9405 76.4938 47.9863 76.5252C48.0321 76.5567 48.0805 76.5832 48.1317 76.6051C48.1827 76.627 48.2354 76.6437 48.2899 76.655C48.3442 76.6665 48.3991 76.6724 48.4546 76.673H64.9987C65.1404 76.673 65.2734 76.639 65.3978 76.5712C68.3852 74.9428 69.8131 72.1014 69.5282 68.3549C69.5249 68.1724 69.5403 67.9914 69.5744 67.8121C69.6085 67.6329 69.6606 67.4588 69.7304 67.2902C69.8003 67.1216 69.8869 66.9621 69.9898 66.8113C70.0926 66.6604 70.2098 66.5218 70.3413 66.395C75.6827 61.78 77.5022 52.9745 74.4826 46.3479ZM38.3615 25.06C38.3965 25.0825 38.4329 25.1023 38.4707 25.1194C39.8242 25.6904 40.7413 27.8436 41.4112 29.4159C41.5729 29.7956 41.7244 30.1502 41.8685 30.4584C42.9017 32.6574 43.7005 34.9263 42.5616 36.6225C42.4119 36.8199 42.2439 37.0007 42.0579 37.1646C41.8719 37.3284 41.6716 37.4723 41.457 37.5962C41.2422 37.7201 41.0173 37.8215 40.7823 37.9002C40.5473 37.9792 40.3068 38.0341 40.061 38.0649C39.857 38.1057 39.6508 38.1251 39.4427 38.1229C39.2348 38.1205 39.0291 38.0968 38.8259 38.0517C38.6228 38.0066 38.4266 37.941 38.2372 37.8549C38.0479 37.7687 37.8693 37.6639 37.702 37.5404C35.9627 36.1353 36.4852 33.336 36.9509 31.7928C38.0163 28.2605 37.2482 26.1546 36.4034 25.0024C36.5963 24.9903 37.8863 25.0033 38.3615 25.06ZM69.2513 65.1331C69.136 65.2383 69.0269 65.3497 68.9238 65.4669C68.8207 65.584 68.7244 65.7067 68.6347 65.8345C68.5451 65.9623 68.4629 66.0945 68.3878 66.2314C68.3127 66.3681 68.2452 66.5087 68.1855 66.6528C68.1258 66.7972 68.0742 66.9441 68.0308 67.094C67.9872 67.2438 67.9518 67.3957 67.9249 67.5493C67.898 67.7032 67.8795 67.8579 67.8698 68.0135C67.8598 68.1693 67.8583 68.3251 67.8654 68.481C68.0948 71.4899 67.0573 73.6837 64.7806 75.0055H49.4262C49.4455 74.9191 49.4681 74.8336 49.4941 74.749C49.5199 74.6643 49.549 74.5808 49.5814 74.4985C49.6139 74.4161 49.6493 74.3351 49.6879 74.2555C49.7265 74.1758 49.7682 74.0979 49.8129 74.0213C49.8576 73.9449 49.9051 73.8705 49.9555 73.7978C50.0061 73.7251 50.0592 73.6544 50.115 73.5858C50.171 73.517 50.2296 73.4508 50.2906 73.3866C50.3515 73.3225 50.4149 73.2609 50.4809 73.2017C50.5466 73.1424 50.6146 73.086 50.6849 73.032C50.755 72.9781 50.8272 72.9269 50.9015 72.8785C50.9755 72.8304 51.0514 72.7848 51.1291 72.7425C51.2068 72.6999 51.286 72.6604 51.3667 72.6242C51.4475 72.5877 51.5293 72.5545 51.6126 72.5246C51.6959 72.4946 51.7801 72.4679 51.8656 72.4443C51.9509 72.4209 52.0371 72.4007 52.1239 72.384C52.2109 72.367 52.2984 72.3536 52.3863 72.3436H55.47C55.5249 72.3436 55.579 72.3382 55.6328 72.3275C55.6864 72.3167 55.7385 72.3008 55.789 72.28C55.8396 72.259 55.8878 72.2334 55.9331 72.203C55.9787 72.1726 56.0208 72.1379 56.0594 72.0992C56.0983 72.0606 56.1328 72.0185 56.1632 71.9729C56.1936 71.9274 56.2194 71.8794 56.2402 71.8288C56.2613 71.7783 56.2769 71.7262 56.2877 71.6724C56.2984 71.6188 56.3036 71.5645 56.3036 71.5098V69.0209C56.3036 66.1561 54.0265 63.5393 52.1 62.1863C51.8719 62.0133 51.6549 61.8273 51.449 61.6285C51.2428 61.4297 51.0495 61.2195 50.8687 60.9975C50.6877 60.7757 50.5208 60.5439 50.3676 60.3021C50.2144 60.0602 50.0759 59.8102 49.9527 59.5519C49.8292 59.2937 49.7218 59.0289 49.63 58.7579C49.5382 58.4868 49.4627 58.2112 49.4038 57.931C49.3448 57.6509 49.3029 57.3683 49.2778 57.0832C49.2526 56.798 49.2443 56.5124 49.2532 56.2264C49.4262 53.158 49.0868 45.7976 42.2007 43.7247C42.1714 43.7158 42.1417 43.7086 42.1115 43.703C42.0814 43.6975 42.051 43.6936 42.0204 43.6912C41.9898 43.6891 41.959 43.6886 41.9284 43.6897C41.8978 43.691 41.8672 43.6939 41.837 43.6984C41.8066 43.703 41.7767 43.709 41.7469 43.7171C41.7172 43.7249 41.6881 43.7342 41.6595 43.7453C41.6308 43.7566 41.6031 43.7692 41.5757 43.7833C41.5486 43.7974 41.5221 43.813 41.4967 43.8301C41.4711 43.8471 41.4468 43.8655 41.4234 43.8853C41.3999 43.905 41.3776 43.9261 41.3563 43.9484C41.3353 43.9705 41.3153 43.9938 41.2969 44.0183C41.2782 44.0426 41.261 44.068 41.2454 44.0945C41.2296 44.1207 41.2153 44.1478 41.2027 44.1756C41.1899 44.2036 41.1786 44.232 41.169 44.2611C41.1595 44.2904 41.1515 44.3199 41.1452 44.3499C41.1387 44.3798 41.1341 44.4102 41.1311 44.4406L40.9661 46.1036L39.1805 47.0237C38.8897 47.193 38.6191 47.3896 38.3683 47.6136C38.1174 47.8377 37.8917 48.0847 37.691 48.3544C37.5911 48.4905 37.4939 48.637 37.3932 48.7889C37.0377 49.3282 36.73 49.7939 36.1219 50.0166C36.0657 50.0372 36.0121 50.0634 35.9616 50.0955C35.911 50.1277 35.8643 50.165 35.8218 50.2071C35.7793 50.2494 35.7417 50.2956 35.7092 50.346C35.6766 50.3961 35.6499 50.4495 35.6289 50.5055C35.5584 50.6908 34.9668 52.3514 35.6977 53.5348C35.7452 53.6092 35.7969 53.6806 35.8531 53.749C35.909 53.8171 35.9689 53.882 36.0325 53.9432C36.0963 54.0044 36.1634 54.0615 36.2339 54.1149C36.3044 54.168 36.378 54.2169 36.4544 54.2613C36.5306 54.3058 36.6094 54.3458 36.6905 54.3809C36.7715 54.4161 36.8544 54.4462 36.939 54.4714C37.0236 54.4968 37.1096 54.517 37.1966 54.5322C37.2836 54.5472 37.3713 54.5571 37.4596 54.5617L39.9392 54.8638C39.9538 54.8655 39.9676 54.8668 39.982 54.8679C40.3157 54.8916 41.0317 55.0706 41.2543 55.3963C41.2906 55.4501 41.3867 55.591 41.278 55.9625C41.087 56.4508 39.3696 61.0513 40.6269 65.0339C40.868 66.3521 41.3114 69.9441 40.5922 71.5749C40.5369 71.7149 39.1881 75.0055 35.4362 75.0055C34.5575 75.0055 33.35 74.4701 33.2706 73.902C33.1506 73.0367 34.1983 72.1346 34.9635 71.476L35.1054 71.3536C35.3392 71.1429 35.5553 70.9154 35.7537 70.6713C35.952 70.4271 36.1306 70.1691 36.289 69.8974C36.4475 69.6257 36.5842 69.3434 36.6988 69.0504C36.8136 68.7577 36.9051 68.4575 36.9735 68.1505C37.5963 64.1155 37.5436 60.8356 36.8118 58.1231C36.6905 57.6574 36.5286 57.206 36.3262 56.7694C36.1237 56.3327 35.8839 55.9178 35.6067 55.5242C35.3502 55.1837 35.077 54.8566 34.7875 54.5435C34.3492 54.1012 33.9742 53.6103 33.6627 53.071C33.5835 52.9048 33.5156 52.734 33.4587 52.5589C33.4019 52.3837 33.3567 52.2056 33.3233 52.0244C33.2897 51.8434 33.2682 51.6609 33.2584 51.4768C33.2489 51.293 33.2513 51.1092 33.2658 50.9256C33.2801 50.742 33.3064 50.5602 33.3448 50.3801C33.383 50.1999 33.4327 50.0231 33.4941 49.8495C33.5555 49.6758 33.628 49.5068 33.7116 49.3427C33.7951 49.1784 33.8889 49.0205 33.993 48.8686C34.1551 48.5886 37.9229 41.9595 33.6599 37.9436C32.6354 36.9779 30.6304 36.5569 30.2374 36.4825C28.9527 36.2941 27.7187 35.9324 26.5354 35.3976C25.921 34.9441 24.4025 33.5665 24.2452 32.2483C24.2359 32.1518 24.2344 32.0552 24.2413 31.9584C24.2858 31.984 24.3322 32.0051 24.3806 32.0218C24.4292 32.0387 24.4787 32.0508 24.5295 32.0584C24.5801 32.066 24.6311 32.0691 24.6825 32.0671C24.7337 32.0654 24.7843 32.0589 24.8344 32.0476C24.8843 32.0363 24.9329 32.0207 24.98 32.0005C25.0273 31.9801 25.072 31.9558 25.1148 31.9271C25.1573 31.8987 25.1968 31.8664 25.2335 31.8306C25.2702 31.7948 25.3031 31.7557 25.3324 31.7138C25.362 31.6717 25.3871 31.6274 25.4084 31.5806C25.4297 31.5339 25.4464 31.4857 25.4585 31.4358C25.4707 31.3861 25.4783 31.3356 25.4811 31.2843C25.4839 31.2331 25.482 31.1821 25.4755 31.1314C25.4689 31.0806 25.4577 31.0307 25.4418 30.982C25.426 30.9332 25.4058 30.8863 25.3813 30.8412C25.3565 30.7963 25.3281 30.754 25.2958 30.7143C25.2634 30.6743 25.2276 30.6381 25.1883 30.6049C25.3162 30.5654 25.4468 30.5402 25.5801 30.5291C26.8047 30.4432 29.0968 30.0866 30.6864 28.663C30.7417 28.6136 30.7895 28.5578 30.8298 28.4957C30.8474 28.4682 32.4077 26.1073 34.4206 25.3453C34.7875 25.5843 36.6423 27.0413 35.3544 31.3108C34.7676 33.2555 34.1556 36.8186 36.6543 38.8375C36.8531 38.9933 37.0638 39.1311 37.2864 39.2509C37.5089 39.3707 37.74 39.4708 37.9798 39.5508C38.2196 39.6309 38.4644 39.6902 38.7142 39.7284C38.964 39.7666 39.2153 39.7833 39.4681 39.7783C39.7502 39.7778 40.0308 39.7564 40.3097 39.7136C40.4896 39.6899 40.6677 39.6574 40.8442 39.6157C41.0206 39.5743 41.1946 39.5237 41.3659 39.4645C41.5373 39.405 41.7053 39.3373 41.8698 39.2609C42.034 39.1845 42.1942 39.0999 42.3502 39.0072C42.5061 38.9146 42.6569 38.8143 42.8025 38.7064C42.9481 38.5984 43.0879 38.4834 43.222 38.3612C43.3559 38.239 43.4833 38.1103 43.6041 37.9751C43.725 37.8399 43.8387 37.6991 43.9453 37.5524C45.7684 34.8382 44.1538 31.4011 43.378 29.7496C43.2409 29.4577 43.0983 29.1218 42.9446 28.762C42.5633 27.8123 42.1176 26.8942 41.607 26.0072C41.8643 26.1385 42.1152 26.2809 42.36 26.4343C42.6048 26.5875 42.8424 26.7511 43.0729 26.9252C43.3034 27.0992 43.5258 27.283 43.7402 27.4764C43.9546 27.67 44.1604 27.8725 44.357 28.0838C44.5538 28.2952 44.7411 28.5146 44.9186 28.7425C45.0961 28.9701 45.2634 29.2051 45.4206 29.4473C45.5777 29.6897 45.7239 29.9384 45.8594 30.1934C45.9948 30.4486 46.1187 30.709 46.2313 30.9749C46.2495 31.0126 46.2697 31.0491 46.2921 31.0845C46.3005 31.0975 47.1508 32.4564 48.1028 36.8293C48.4132 38.2492 48.7166 39.4065 49.0573 40.4723C49.6458 42.3642 50.467 44.1491 51.521 45.8269C52.503 47.3805 53.5861 48.8601 54.7706 50.2657C55.9551 51.6713 57.2298 52.9899 58.5946 54.221C60.3752 55.7763 62.0432 57.4445 63.5981 59.2255C64.1443 59.9198 64.6204 60.6594 65.0265 61.4441C65.0514 61.4927 65.0807 61.5383 65.1146 61.581C65.1484 61.624 65.186 61.663 65.2274 61.6986C65.2686 61.7342 65.3131 61.7655 65.3607 61.7924C65.408 61.8193 65.4577 61.8414 65.5093 61.8588C65.5612 61.8759 65.6141 61.8883 65.6682 61.8952C65.7222 61.9022 65.7765 61.9041 65.8309 61.9007C65.8854 61.8972 65.939 61.8885 65.9917 61.8746C66.0447 61.8607 66.0955 61.8419 66.1447 61.8182C66.1938 61.7937 66.2398 61.7648 66.2832 61.7312C66.3264 61.6978 66.3659 61.6602 66.4019 61.619C66.4377 61.5775 66.4694 61.5333 66.4965 61.4857C66.5236 61.438 66.546 61.3883 66.5631 61.3364C66.5805 61.2846 66.5926 61.2314 66.5996 61.1771C66.6065 61.1229 66.6081 61.0684 66.6041 61.0137C66.6005 60.959 66.5911 60.9054 66.5768 60.8525C66.5625 60.7998 66.5429 60.749 66.5184 60.6999C66.3763 60.4146 66.2215 60.1381 66.0662 59.8772C68.3244 58.7075 69.597 56.1051 70.0165 54.5975C70.1829 53.9718 70.3029 53.3371 70.3767 52.6939C70.4505 52.0504 70.477 51.405 70.4564 50.7579C70.436 50.1105 70.3685 49.4682 70.2541 48.8308C70.1397 48.1934 69.9796 47.5678 69.7736 46.9536C68.4425 42.9189 65.1111 40.1604 61.0807 39.7546C58.9616 39.5404 58.8264 39.0834 58.8659 38.6711C58.9073 38.2407 59.9527 37.928 61.3509 37.928L61.5362 37.93C63.8843 37.9762 66.6944 39.1871 68.8685 41.0903C70.5677 42.5782 72.0994 45.1392 72.9655 47.0396C75.6486 52.9284 73.9831 61.0456 69.2513 65.1331Z" fill="#444E27"/>
</g>
<path d="M34.2363 28.3181C34.2363 28.3728 34.2309 28.4271 34.2203 28.4807C34.2096 28.5343 34.1938 28.5866 34.1727 28.6372C34.1519 28.6877 34.1261 28.7357 34.0957 28.7812C34.0653 28.8268 34.0308 28.8689 33.992 28.9076C33.9533 28.9462 33.9112 28.9809 33.8657 29.0113C33.8201 29.0417 33.7721 29.0673 33.7216 29.0883C33.6708 29.1092 33.6187 29.125 33.5651 29.1359C33.5113 29.1465 33.457 29.1517 33.4023 29.1517C33.3477 29.1517 33.2934 29.1465 33.2396 29.1359C33.186 29.125 33.1337 29.1092 33.0831 29.0883C33.0326 29.0673 32.9846 29.0417 32.939 29.0113C32.8934 28.9809 32.8513 28.9462 32.8127 28.9076C32.7739 28.8689 32.7394 28.8268 32.709 28.7812C32.6786 28.7357 32.6528 28.6877 32.6319 28.6372C32.6109 28.5866 32.5951 28.5343 32.5844 28.4807C32.5738 28.4271 32.5684 28.3728 32.5684 28.3181C32.5684 28.2632 32.5738 28.209 32.5844 28.1554C32.5951 28.1018 32.6109 28.0495 32.6319 27.9989C32.6528 27.9484 32.6786 27.9004 32.709 27.8548C32.7394 27.8092 32.7739 27.7671 32.8127 27.7285C32.8513 27.6899 32.8934 27.6552 32.939 27.6248C32.9846 27.5944 33.0326 27.5688 33.0831 27.5477C33.1337 27.5269 33.186 27.5111 33.2396 27.5004C33.2934 27.4896 33.3477 27.4844 33.4023 27.4844C33.457 27.4844 33.5113 27.4896 33.5651 27.5004C33.6187 27.5111 33.6708 27.5269 33.7216 27.5477C33.7721 27.5688 33.8201 27.5944 33.8657 27.6248C33.9112 27.6552 33.9533 27.6899 33.992 27.7285C34.0308 27.7671 34.0653 27.8092 34.0957 27.8548C34.1261 27.9004 34.1519 27.9484 34.1727 27.9989C34.1938 28.0495 34.2096 28.1018 34.2203 28.1554C34.2309 28.209 34.2363 28.2632 34.2363 28.3181Z" fill="#444E27"/>
</svg>
