<svg width="23" height="24" viewBox="0 0 23 24" fill="none" xmlns="http://www.w3.org/2000/svg">
<g clip-path="url(#clip0_505_2320)">
<path d="M16.2878 2H6.70661C4.06084 2 1.91602 4.23858 1.91602 7V17C1.91602 19.7614 4.06084 22 6.70661 22H16.2878C18.9336 22 21.0784 19.7614 21.0784 17V7C21.0784 4.23858 18.9336 2 16.2878 2Z" stroke="#DEDCCA" stroke-width="2" stroke-linecap="round" stroke-linejoin="round"/>
<path d="M15.3296 11.3698C15.4478 12.2021 15.3116 13.052 14.9403 13.7988C14.5691 14.5456 13.9816 15.1512 13.2616 15.5295C12.5415 15.9077 11.7255 16.0394 10.9297 15.9057C10.1338 15.7721 9.39857 15.3799 8.82856 14.785C8.25856 14.1901 7.8828 13.4227 7.75473 12.592C7.62667 11.7614 7.75281 10.9097 8.11523 10.1582C8.47765 9.40667 9.05789 8.79355 9.77341 8.40605C10.4889 8.01856 11.3033 7.8764 12.1007 7.99981C12.9141 8.1257 13.6671 8.52128 14.2485 9.12812C14.8299 9.73496 15.2089 10.5209 15.3296 11.3698Z" stroke="#DEDCCA" stroke-width="2" stroke-linecap="round" stroke-linejoin="round"/>
<path d="M16.7666 6.5H16.7766" stroke="#DEDCCA" stroke-width="2" stroke-linecap="round" stroke-linejoin="round"/>
</g>
<defs>
<clipPath id="clip0_505_2320">
<rect width="22.9949" height="24" fill="white"/>
</clipPath>
</defs>
</svg>
