<svg width="126" height="27" viewBox="0 0 126 27" fill="none" xmlns="http://www.w3.org/2000/svg">
<path d="M2.27344 23.1797C3.63281 22.9922 4.60938 22.8203 5.20312 22.6641C5.79688 22.5078 6.36719 21.7734 6.91406 20.4609C6.89844 17.5078 6.88281 14.5547 6.86719 11.6016C6.86719 8.64844 6.86719 5.69531 6.86719 2.74219C6.77344 2.74219 6.67969 2.73438 6.58594 2.71875C6.49219 2.70312 6.39844 2.6875 6.30469 2.67188C6.25781 4.40625 6.28125 7 6.375 10.4531C6.46875 13.8906 6.51562 17.0859 6.51562 20.0391C6.26562 21.3047 5.74219 22.0469 4.94531 22.2656C4.14844 22.4688 3.21094 22.5938 2.13281 22.6406C2.14844 22.8281 2.19531 23.0078 2.27344 23.1797ZM2.67188 25.7109C2.125 25.6328 1.32031 25.5 0.257812 25.3125C0.210938 24.5 0.171875 23.6797 0.140625 22.8516C0.09375 22.0078 0.046875 21.1719 0 20.3438C1.125 20.5312 2.05469 20.625 2.78906 20.625C3.52344 20.6094 4 19.9688 4.21875 18.7031C4.14062 15.875 4.09375 13.0391 4.07812 10.1953C3.98438 8.64844 3.86719 7.09375 3.72656 5.53125C3.58594 3.96875 3.54688 2.41406 3.60938 0.867188C4.59375 1.02344 5.58594 1.19531 6.58594 1.38281C7.58594 1.55469 8.58594 1.72656 9.58594 1.89844C9.52344 5.07031 9.45312 8.24219 9.375 11.4141C9.3125 14.5703 9.25781 17.7266 9.21094 20.8828C9.02344 22.1172 8.73438 23.1016 8.34375 23.8359C7.95312 24.5703 7.14062 25.1719 5.90625 25.6406C5.35938 25.6406 4.8125 25.6484 4.26562 25.6641C3.73438 25.6797 3.20312 25.6953 2.67188 25.7109ZM15.1406 21.8438C15.875 21.7812 16.5547 21.5078 17.1797 21.0234C17.8203 20.5391 18.4453 20.0938 19.0547 19.6875C19.1016 19.7188 19.1875 19.75 19.3125 19.7812C19.3281 20.2188 19.3594 20.9062 19.4062 21.8438C19.4688 21.8438 19.5312 21.8438 19.5938 21.8438C19.6562 21.8438 19.7266 21.8438 19.8047 21.8438C19.7734 19.0312 19.7422 16.2188 19.7109 13.4062C19.6953 10.5938 19.6797 7.77344 19.6641 4.94531C19.6016 4.94531 19.5312 4.94531 19.4531 4.94531C19.3906 4.94531 19.3281 4.94531 19.2656 4.94531C19.2656 7.28906 19.2656 9.625 19.2656 11.9531C19.2812 14.2656 19.2969 16.5938 19.3125 18.9375C18.8594 19.3594 18.2969 19.8672 17.625 20.4609C16.9688 21.0547 16.3281 21.3516 15.7031 21.3516C15.1562 21.1953 14.5781 20.9688 13.9688 20.6719C13.3594 20.3594 12.8984 19.9609 12.5859 19.4766C12.5391 17.0547 12.5 14.6406 12.4688 12.2344C12.4531 9.8125 12.4297 7.38281 12.3984 4.94531C12.3047 4.94531 12.2109 4.94531 12.1172 4.94531C12.0234 4.94531 11.9375 4.94531 11.8594 4.94531C11.9375 8.35156 12 10.9844 12.0469 12.8438C12.0938 14.6875 12.125 16.0781 12.1406 17.0156C12.1719 17.9531 12.1953 18.5859 12.2109 18.9141C12.2422 19.2422 12.2812 19.5781 12.3281 19.9219C13 20.5156 13.9375 21.1562 15.1406 21.8438ZM15.1406 24.1641C14.2969 23.7422 13.3906 23.2891 12.4219 22.8047C11.4531 22.3203 10.7344 21.6328 10.2656 20.7422C10.2031 17.8984 10.1406 15.0625 10.0781 12.2344C10.0156 9.39062 9.83594 6.55469 9.53906 3.72656C10.2891 3.72656 11.0391 3.72656 11.7891 3.72656C12.5391 3.72656 13.2891 3.72656 14.0391 3.72656C14.1641 6.17969 14.2031 8.64844 14.1562 11.1328C14.125 13.6016 14.1016 16.0625 14.0859 18.5156C14.6016 18.625 15.1172 18.7344 15.6328 18.8438C16.1641 18.9531 16.7109 18.9844 17.2734 18.9375C17.6016 16.5156 17.7188 14.0078 17.625 11.4141C17.5469 8.80469 17.4844 6.26562 17.4375 3.79688C18.1719 3.79688 18.9062 3.78906 19.6406 3.77344C20.375 3.75781 21.1172 3.74219 21.8672 3.72656C21.7422 7.02344 21.625 10.3281 21.5156 13.6406C21.4219 16.9375 21.375 20.2344 21.375 23.5312C20.7188 23.6406 20.0625 23.75 19.4062 23.8594C18.7656 23.9688 18.125 24.0703 17.4844 24.1641C17.4688 23.8984 17.4609 23.5 17.4609 22.9688C16.6172 23.4688 16.0938 23.7734 15.8906 23.8828C15.7031 23.9766 15.4531 24.0703 15.1406 24.1641ZM26.2734 13.9453C26.4297 13.9141 26.5547 13.8906 26.6484 13.875C27.8516 12.75 28.5 11.5781 28.5938 10.3594C28.6875 9.14062 27.875 8.11719 26.1562 7.28906C26.1562 8.39844 26.1641 9.50781 26.1797 10.6172C26.2109 11.7266 26.2422 12.8359 26.2734 13.9453ZM24.6562 16.2656C24.6562 14.4375 24.6562 12.6016 24.6562 10.7578C24.6562 8.91406 24.6562 7.07812 24.6562 5.25C27.5938 5 29.5625 6.40625 30.5625 9.46875C30.5625 11.375 30.0781 12.9531 29.1094 14.2031C28.1562 15.4531 26.6719 16.1406 24.6562 16.2656ZM30.6328 22.2422C30.6797 22.2422 30.7188 22.2422 30.75 22.2422C30.7969 22.2422 30.8516 22.2422 30.9141 22.2422C30.5859 21.3047 30.125 20.1328 29.5312 18.7266C28.9531 17.3047 28.7344 16.1016 28.875 15.1172C31.2969 12.6797 31.6797 9.96875 30.0234 6.98438C28.9922 6.01562 28.0938 5.42969 27.3281 5.22656C26.5781 5.00781 25.5078 4.92188 24.1172 4.96875C24.1172 7.82812 24.1172 10.6875 24.1172 13.5469C24.1172 16.4062 24.1172 19.2578 24.1172 22.1016C24.1953 22.1016 24.2812 22.1016 24.375 22.1016C24.4688 22.1016 24.5625 22.1016 24.6562 22.1016C24.6094 19.6641 24.5859 18.2266 24.5859 17.7891C24.5859 17.3359 24.625 17.0078 24.7031 16.8047C25.2656 16.6641 25.8516 16.4688 26.4609 16.2188C27.0859 15.9688 27.6797 15.8438 28.2422 15.8438C28.6328 16.9219 29.0234 17.9922 29.4141 19.0547C29.8203 20.1016 30.2266 21.1641 30.6328 22.2422ZM29.8359 24.0234C29.3828 23.1016 28.9375 22.1875 28.5 21.2812C28.0625 20.3594 27.6328 19.4375 27.2109 18.5156C27.1172 18.5156 27.0312 18.5156 26.9531 18.5156C26.8906 18.5156 26.8281 18.5156 26.7656 18.5156C26.1094 19.1875 25.9844 20.0078 26.3906 20.9766C26.8125 21.9297 26.8672 22.7812 26.5547 23.5312C25.5547 23.5781 24.7734 23.625 24.2109 23.6719C23.6641 23.7031 23.0781 23.7344 22.4531 23.7656V15.4922C22.4688 13.5547 22.4844 11.6172 22.5 9.67969C22.5156 7.72656 22.5312 5.77344 22.5469 3.82031C23.5 3.82031 24.4531 3.82031 25.4062 3.82031C26.375 3.80469 27.3516 3.79688 28.3359 3.79688C30.8203 4.96875 32.3047 6.70312 32.7891 9C33.2891 11.2812 32.5547 13.3359 30.5859 15.1641C30.8203 16.5078 31.1719 17.8281 31.6406 19.125C32.1094 20.4219 32.5625 21.7031 33 22.9688C32.4688 23.1562 31.9375 23.3359 31.4062 23.5078C30.875 23.6797 30.3516 23.8516 29.8359 24.0234ZM37.6406 15.3047C38.0625 15.3047 38.4844 15.2969 38.9062 15.2812C39.3438 15.2656 39.7891 15.25 40.2422 15.2344C40.0703 14.125 39.875 13.0234 39.6562 11.9297C39.4531 10.8203 39.1953 9.71875 38.8828 8.625C38.6172 9.60938 38.2969 10.7266 37.9219 11.9766C37.5625 13.2266 37.4688 14.3359 37.6406 15.3047ZM36.1875 16.6406C36.0469 16.625 35.9219 16.6016 35.8125 16.5703C35.7031 16.5391 35.6016 16.5156 35.5078 16.5C35.9922 13.8281 36.3281 12.0547 36.5156 11.1797C36.7031 10.2891 37.125 8.50781 37.7812 5.83594C38.1094 5.85156 38.4375 5.86719 38.7656 5.88281C39.1094 5.89844 39.4609 5.90625 39.8203 5.90625C40.3359 7.625 40.75 9.36719 41.0625 11.1328C41.375 12.8828 41.6719 14.6406 41.9531 16.4062C41.5312 16.5 41.0781 16.5547 40.5938 16.5703C40.125 16.5859 38.6562 16.6094 36.1875 16.6406ZM42.9844 22.2422C43.0469 22.2422 43.1094 22.2422 43.1719 22.2422C43.25 22.2422 43.3203 22.2422 43.3828 22.2422C42.8984 19.4609 42.3828 16.6797 41.8359 13.8984C41.3047 11.1172 40.7578 8.33594 40.1953 5.55469C40.0547 5.52344 39.8594 5.51562 39.6094 5.53125C39.375 5.53125 38.6172 5.57031 37.3359 5.64844C36.7578 8.36719 36.1797 11.0938 35.6016 13.8281C35.0391 16.5469 34.4766 19.2656 33.9141 21.9844C33.9922 21.9844 34.0781 21.9844 34.1719 21.9844C34.2656 21.9844 34.3594 21.9844 34.4531 21.9844C34.5938 21.1562 34.7422 20.3359 34.8984 19.5234C35.0547 18.6953 35.2109 17.8672 35.3672 17.0391C36.4922 17.0391 37.625 17.0391 38.7656 17.0391C39.9062 17.0391 41.0469 17.0391 42.1875 17.0391C42.3125 17.9141 42.4375 18.7891 42.5625 19.6641C42.7031 20.5234 42.8438 21.3828 42.9844 22.2422ZM45.6797 23.4375C45.1641 23.4688 44.5703 23.5 43.8984 23.5312C43.2266 23.5469 42.3047 23.5625 41.1328 23.5781C41.0078 21.9844 40.9219 21 40.875 20.625C40.8438 20.25 40.7812 19.7422 40.6875 19.1016C40.0625 19.0859 39.4375 19.0703 38.8125 19.0547C38.2031 19.0391 37.5938 19.0156 36.9844 18.9844C36.6719 21.0625 36.4844 22.2891 36.4219 22.6641C36.3594 23.0234 36.2812 23.2578 36.1875 23.3672C35.5312 23.3828 34.875 23.4062 34.2188 23.4375C33.5781 23.4531 32.9453 23.4609 32.3203 23.4609C32.5547 21.9766 33.0781 19.1016 33.8906 14.8359C34.7188 10.5703 35.375 6.92188 35.8594 3.89062C36.8438 3.89062 37.8359 3.89062 38.8359 3.89062C39.8359 3.89062 40.8359 3.89062 41.8359 3.89062C42.3984 7.90625 43.0859 11.7891 43.8984 15.5391C44.1328 16.9453 44.4062 18.3516 44.7188 19.7578C45.0312 21.1641 45.3516 22.3906 45.6797 23.4375ZM47.6953 24.3516C47.0703 23.8984 46.4531 23.4531 45.8438 23.0156C45.2344 22.5625 44.6328 22.1094 44.0391 21.6562C44.0703 21.5312 44.1016 21.4219 44.1328 21.3281C45.3828 20.4062 46.2969 19.6641 46.875 19.1016C47.4688 18.5234 47.7656 17.4219 47.7656 15.7969C47.2656 14.9531 46.7812 14.1016 46.3125 13.2422C45.8594 12.3672 45.3984 11.4922 44.9297 10.6172C44.8359 8.85156 45.1406 7.47656 45.8438 6.49219C46.5469 5.50781 47.4844 4.35938 48.6562 3.04688C49.2656 3.04688 50.0703 3.42969 51.0703 4.19531C52.0859 4.96094 52.6797 5.64062 52.8516 6.23438C51.9297 6.71875 51.1797 7.28906 50.6016 7.94531C50.0234 8.60156 49.7344 9.48438 49.7344 10.5938C49.8281 10.8125 49.9219 11.0312 50.0156 11.25C50.125 11.4531 50.2266 11.6719 50.3203 11.9062C51.3984 13.5625 52.0781 14.8516 52.3594 15.7734C52.6562 16.6953 52.3594 18.0938 51.4688 19.9688C51 20.625 50.4375 21.4453 49.7812 22.4297C49.125 23.3984 48.4297 24.0391 47.6953 24.3516ZM47.2734 21.7969C47.4141 21.7812 47.5781 21.7578 47.7656 21.7266C48.4844 20.6172 49.1016 19.5938 49.6172 18.6562C50.1484 17.7031 50.2812 16.5234 50.0156 15.1172C48.8906 13.1797 48.1406 11.5859 47.7656 10.3359C47.3906 9.08594 48 7.54688 49.5938 5.71875C49.5156 5.375 49.4219 5.17969 49.3125 5.13281C48.4375 5.88281 47.8594 6.70312 47.5781 7.59375C47.3125 8.48438 47.1797 9.44531 47.1797 10.4766C47.5234 11.3672 47.9375 12.2578 48.4219 13.1484C48.9219 14.0234 49.3125 14.7891 49.5938 15.4453C49.5938 17.8516 48.8047 19.8125 47.2266 21.3281C47.2266 21.4219 47.2422 21.5781 47.2734 21.7969ZM55.4766 24.3516C54.8516 23.8984 54.2344 23.4531 53.625 23.0156C53.0156 22.5625 52.4141 22.1094 51.8203 21.6562C51.8516 21.5312 51.8828 21.4219 51.9141 21.3281C53.1641 20.4062 54.0781 19.6641 54.6562 19.1016C55.25 18.5234 55.5469 17.4219 55.5469 15.7969C55.0469 14.9531 54.5625 14.1016 54.0938 13.2422C53.6406 12.3672 53.1797 11.4922 52.7109 10.6172C52.6172 8.85156 52.9219 7.47656 53.625 6.49219C54.3281 5.50781 55.2656 4.35938 56.4375 3.04688C57.0469 3.04688 57.8516 3.42969 58.8516 4.19531C59.8672 4.96094 60.4609 5.64062 60.6328 6.23438C59.7109 6.71875 58.9609 7.28906 58.3828 7.94531C57.8047 8.60156 57.5156 9.48438 57.5156 10.5938C57.6094 10.8125 57.7031 11.0312 57.7969 11.25C57.9062 11.4531 58.0078 11.6719 58.1016 11.9062C59.1797 13.5625 59.8594 14.8516 60.1406 15.7734C60.4375 16.6953 60.1406 18.0938 59.25 19.9688C58.7812 20.625 58.2188 21.4453 57.5625 22.4297C56.9062 23.3984 56.2109 24.0391 55.4766 24.3516ZM55.0547 21.7969C55.1953 21.7812 55.3594 21.7578 55.5469 21.7266C56.2656 20.6172 56.8828 19.5938 57.3984 18.6562C57.9297 17.7031 58.0625 16.5234 57.7969 15.1172C56.6719 13.1797 55.9219 11.5859 55.5469 10.3359C55.1719 9.08594 55.7812 7.54688 57.375 5.71875C57.2969 5.375 57.2031 5.17969 57.0938 5.13281C56.2188 5.88281 55.6406 6.70312 55.3594 7.59375C55.0938 8.48438 54.9609 9.44531 54.9609 10.4766C55.3047 11.3672 55.7188 12.2578 56.2031 13.1484C56.7031 14.0234 57.0938 14.7891 57.375 15.4453C57.375 17.8516 56.5859 19.8125 55.0078 21.3281C55.0078 21.4219 55.0234 21.5781 55.0547 21.7969ZM60.4922 3.89062C61.1797 3.90625 61.875 3.92188 62.5781 3.9375C63.2812 3.95312 63.9844 3.96094 64.6875 3.96094C64.7344 4.19531 64.7188 5.39062 64.6406 7.54688C64.5625 9.6875 64.5234 12.6484 64.5234 16.4297C64.5703 17.6016 64.6172 18.7812 64.6641 19.9688C64.7266 21.1406 64.7969 22.3125 64.875 23.4844C64.125 23.4844 63.375 23.4922 62.625 23.5078C61.875 23.5234 61.125 23.5312 60.375 23.5312C60.4844 20.6875 60.5703 17.8516 60.6328 15.0234C60.7109 12.1797 60.6797 9.32812 60.5391 6.46875C60.5234 6.1875 60.5078 5.75 60.4922 5.15625C60.4922 4.54688 60.4922 4.125 60.4922 3.89062ZM62.3672 22.0078C62.4453 22.0078 62.5312 22.0078 62.625 22.0078C62.7344 22.0078 62.8359 22.0078 62.9297 22.0078C62.9297 19.2578 62.9297 16.5078 62.9297 13.7578C62.9297 11.0078 62.9297 8.25 62.9297 5.48438C62.8359 5.5 62.75 5.52344 62.6719 5.55469C62.5938 5.57031 62.5234 5.57812 62.4609 5.57812C62.4453 8.32812 62.4219 11.0703 62.3906 13.8047C62.375 16.5391 62.3672 19.2734 62.3672 22.0078ZM70.4531 21.9609C70.8281 21.9141 71.0391 21.8203 71.0859 21.6797C65.7734 16.3672 65.7188 11.1016 70.9219 5.88281C70.9219 5.82031 70.9219 5.75781 70.9219 5.69531C70.9219 5.61719 70.9219 5.54688 70.9219 5.48438C70.8438 5.48438 70.7656 5.48438 70.6875 5.48438C70.625 5.48438 70.5703 5.48438 70.5234 5.48438C70.1641 5.85938 69.6094 6.46875 68.8594 7.3125C67.0312 10.0312 66.3047 12.5625 66.6797 14.9062C67.0703 17.25 68.3281 19.6016 70.4531 21.9609ZM70.3125 24.2109C67.5781 22.6641 65.9062 20.4688 65.2969 17.625C64.7031 14.7812 64.8047 11.9609 65.6016 9.16406C65.9922 8.30469 66.6719 7.125 67.6406 5.625C68.6094 4.125 69.6562 3.375 70.7812 3.375C71.1875 3.79688 71.75 4.3125 72.4688 4.92188C73.1875 5.51562 73.5938 6.09375 73.6875 6.65625C70.4375 8.10938 68.8359 10.5781 68.8828 14.0625C68.9297 17.5469 70.6875 19.8828 74.1562 21.0703C74.1562 21.1328 74.1562 21.2031 74.1562 21.2812C74.1562 21.3438 74.1562 21.4062 74.1562 21.4688C73.5469 21.9844 72.9453 22.5234 72.3516 23.0859C71.7578 23.6328 71.0781 24.0078 70.3125 24.2109ZM77.7188 25.7812C77.9688 21.6875 78.125 17.4688 78.1875 13.125C78.25 8.76562 78.0938 4.53125 77.7188 0.421875C80.25 0.140625 82.3516 0.265625 84.0234 0.796875C85.6953 1.32812 87.3281 2.29688 88.9219 3.70312C89.9062 5.39062 90.2969 7.07031 90.0938 8.74219C89.8906 10.3984 89.1875 11.8516 87.9844 13.1016C88.3594 13.4297 88.7344 13.6719 89.1094 13.8281C89.4844 13.9688 89.8047 14.1953 90.0703 14.5078C91.6172 16.3828 92.1562 18.2344 91.6875 20.0625C91.2188 21.8906 90.2266 23.3203 88.7109 24.3516C87.2422 25.3359 85.4922 25.8984 83.4609 26.0391C81.4453 26.1953 79.5312 26.1094 77.7188 25.7812ZM80.3438 13.2422C80.3125 15.0547 80.3047 16.8828 80.3203 18.7266C80.3359 20.5703 80.2891 22.375 80.1797 24.1406C80.7109 24.1406 81.3359 24.1328 82.0547 24.1172C82.7891 24.0859 83.4297 24.0547 83.9766 24.0234C86.7891 23.4453 88.5156 22.375 89.1562 20.8125C89.8125 19.25 89.7734 17.6406 89.0391 15.9844C88.3828 15.2188 87.5781 14.6328 86.625 14.2266C85.6875 13.8047 84.7031 13.4766 83.6719 13.2422C85.1719 12.7422 86.4062 11.8203 87.375 10.4766C88.4531 7.85156 88.2344 5.85938 86.7188 4.5C85.2031 3.14062 83.0234 2.41406 80.1797 2.32031C80.2891 4.10156 80.3359 5.92188 80.3203 7.78125C80.3047 9.625 80.3125 11.4453 80.3438 13.2422ZM81.0703 12.8438C81.0547 12.8281 81.0156 12.8203 80.9531 12.8203C80.9375 12.8203 80.9297 12.8203 80.9297 12.8203C80.9141 11.1797 80.8984 9.55469 80.8828 7.94531C80.8828 6.32031 80.8828 4.69531 80.8828 3.07031C83.0078 3.03906 84.6172 3.51562 85.7109 4.5C86.8203 5.46875 87.3906 6.55469 87.4219 7.75781C87.4531 8.96094 86.9375 10.0859 85.875 11.1328C84.8281 12.1797 83.2266 12.75 81.0703 12.8438ZM81.1172 13.6172C83.8828 13.7422 85.8984 14.3672 87.1641 15.4922C88.4453 16.6016 89.0391 17.7812 88.9453 19.0312C88.8516 20.2812 88.1094 21.3828 86.7188 22.3359C85.3438 23.2891 83.3984 23.6484 80.8828 23.4141C80.8828 21.7891 80.8906 20.1641 80.9062 18.5391C80.9219 16.9141 80.9375 15.2812 80.9531 13.6406C81.0312 13.6406 81.0859 13.6328 81.1172 13.6172ZM82.4297 4.82812C82.4297 5.8125 82.4297 6.78906 82.4297 7.75781C82.4297 8.72656 82.4297 9.6875 82.4297 10.6406C84.4609 10.1406 85.4453 9.1875 85.3828 7.78125C85.3203 6.375 84.3359 5.39062 82.4297 4.82812ZM83.25 15.6328C83.25 16.6172 83.25 17.5938 83.25 18.5625C83.25 19.5156 83.25 20.4766 83.25 21.4453C85.6406 20.9453 86.7969 19.9922 86.7188 18.5859C86.6406 17.1797 85.4844 16.1953 83.25 15.6328ZM96.5156 15.3047C96.9375 15.3047 97.3594 15.2969 97.7812 15.2812C98.2188 15.2656 98.6641 15.25 99.1172 15.2344C98.9453 14.125 98.75 13.0234 98.5312 11.9297C98.3281 10.8203 98.0703 9.71875 97.7578 8.625C97.4922 9.60938 97.1719 10.7266 96.7969 11.9766C96.4375 13.2266 96.3438 14.3359 96.5156 15.3047ZM95.0625 16.6406C94.9219 16.625 94.7969 16.6016 94.6875 16.5703C94.5781 16.5391 94.4766 16.5156 94.3828 16.5C94.8672 13.8281 95.2031 12.0547 95.3906 11.1797C95.5781 10.2891 96 8.50781 96.6562 5.83594C96.9844 5.85156 97.3125 5.86719 97.6406 5.88281C97.9844 5.89844 98.3359 5.90625 98.6953 5.90625C99.2109 7.625 99.625 9.36719 99.9375 11.1328C100.25 12.8828 100.547 14.6406 100.828 16.4062C100.406 16.5 99.9531 16.5547 99.4688 16.5703C99 16.5859 97.5312 16.6094 95.0625 16.6406ZM101.859 22.2422C101.922 22.2422 101.984 22.2422 102.047 22.2422C102.125 22.2422 102.195 22.2422 102.258 22.2422C101.773 19.4609 101.258 16.6797 100.711 13.8984C100.18 11.1172 99.6328 8.33594 99.0703 5.55469C98.9297 5.52344 98.7344 5.51562 98.4844 5.53125C98.25 5.53125 97.4922 5.57031 96.2109 5.64844C95.6328 8.36719 95.0547 11.0938 94.4766 13.8281C93.9141 16.5469 93.3516 19.2656 92.7891 21.9844C92.8672 21.9844 92.9531 21.9844 93.0469 21.9844C93.1406 21.9844 93.2344 21.9844 93.3281 21.9844C93.4688 21.1562 93.6172 20.3359 93.7734 19.5234C93.9297 18.6953 94.0859 17.8672 94.2422 17.0391C95.3672 17.0391 96.5 17.0391 97.6406 17.0391C98.7812 17.0391 99.9219 17.0391 101.062 17.0391C101.188 17.9141 101.312 18.7891 101.438 19.6641C101.578 20.5234 101.719 21.3828 101.859 22.2422ZM104.555 23.4375C104.039 23.4688 103.445 23.5 102.773 23.5312C102.102 23.5469 101.18 23.5625 100.008 23.5781C99.8828 21.9844 99.7969 21 99.75 20.625C99.7188 20.25 99.6562 19.7422 99.5625 19.1016C98.9375 19.0859 98.3125 19.0703 97.6875 19.0547C97.0781 19.0391 96.4688 19.0156 95.8594 18.9844C95.5469 21.0625 95.3594 22.2891 95.2969 22.6641C95.2344 23.0234 95.1562 23.2578 95.0625 23.3672C94.4062 23.3828 93.75 23.4062 93.0938 23.4375C92.4531 23.4531 91.8203 23.4609 91.1953 23.4609C91.4297 21.9766 91.9531 19.1016 92.7656 14.8359C93.5938 10.5703 94.25 6.92188 94.7344 3.89062C95.7188 3.89062 96.7109 3.89062 97.7109 3.89062C98.7109 3.89062 99.7109 3.89062 100.711 3.89062C101.273 7.90625 101.961 11.7891 102.773 15.5391C103.008 16.9453 103.281 18.3516 103.594 19.7578C103.906 21.1641 104.227 22.3906 104.555 23.4375ZM107.32 13.9453C107.477 13.9141 107.602 13.8906 107.695 13.875C108.898 12.75 109.547 11.5781 109.641 10.3594C109.734 9.14062 108.922 8.11719 107.203 7.28906C107.203 8.39844 107.211 9.50781 107.227 10.6172C107.258 11.7266 107.289 12.8359 107.32 13.9453ZM105.703 16.2656C105.703 14.4375 105.703 12.6016 105.703 10.7578C105.703 8.91406 105.703 7.07812 105.703 5.25C108.641 5 110.609 6.40625 111.609 9.46875C111.609 11.375 111.125 12.9531 110.156 14.2031C109.203 15.4531 107.719 16.1406 105.703 16.2656ZM111.68 22.2422C111.727 22.2422 111.766 22.2422 111.797 22.2422C111.844 22.2422 111.898 22.2422 111.961 22.2422C111.633 21.3047 111.172 20.1328 110.578 18.7266C110 17.3047 109.781 16.1016 109.922 15.1172C112.344 12.6797 112.727 9.96875 111.07 6.98438C110.039 6.01562 109.141 5.42969 108.375 5.22656C107.625 5.00781 106.555 4.92188 105.164 4.96875C105.164 7.82812 105.164 10.6875 105.164 13.5469C105.164 16.4062 105.164 19.2578 105.164 22.1016C105.242 22.1016 105.328 22.1016 105.422 22.1016C105.516 22.1016 105.609 22.1016 105.703 22.1016C105.656 19.6641 105.633 18.2266 105.633 17.7891C105.633 17.3359 105.672 17.0078 105.75 16.8047C106.312 16.6641 106.898 16.4688 107.508 16.2188C108.133 15.9688 108.727 15.8438 109.289 15.8438C109.68 16.9219 110.07 17.9922 110.461 19.0547C110.867 20.1016 111.273 21.1641 111.68 22.2422ZM110.883 24.0234C110.43 23.1016 109.984 22.1875 109.547 21.2812C109.109 20.3594 108.68 19.4375 108.258 18.5156C108.164 18.5156 108.078 18.5156 108 18.5156C107.938 18.5156 107.875 18.5156 107.812 18.5156C107.156 19.1875 107.031 20.0078 107.438 20.9766C107.859 21.9297 107.914 22.7812 107.602 23.5312C106.602 23.5781 105.82 23.625 105.258 23.6719C104.711 23.7031 104.125 23.7344 103.5 23.7656V15.4922C103.516 13.5547 103.531 11.6172 103.547 9.67969C103.562 7.72656 103.578 5.77344 103.594 3.82031C104.547 3.82031 105.5 3.82031 106.453 3.82031C107.422 3.80469 108.398 3.79688 109.383 3.79688C111.867 4.96875 113.352 6.70312 113.836 9C114.336 11.2812 113.602 13.3359 111.633 15.1641C111.867 16.5078 112.219 17.8281 112.688 19.125C113.156 20.4219 113.609 21.7031 114.047 22.9688C113.516 23.1562 112.984 23.3359 112.453 23.5078C111.922 23.6797 111.398 23.8516 110.883 24.0234ZM115.758 21.6797C115.836 21.6797 115.922 21.6797 116.016 21.6797C116.125 21.6797 116.227 21.6797 116.32 21.6797C116.32 20.7891 116.328 19.8984 116.344 19.0078C116.359 18.1172 116.383 17.2266 116.414 16.3359C116.68 15.9766 117.07 15.3828 117.586 14.5547C118.117 13.7266 118.594 13.2656 119.016 13.1719C119.672 14.5781 120.328 15.9766 120.984 17.3672C121.641 18.7578 122.312 20.1562 123 21.5625C123.078 21.5469 123.227 21.5391 123.445 21.5391C122.461 19.4453 121.789 18.0391 121.43 17.3203C121.086 16.6016 120.344 15.1328 119.203 12.9141C119.344 11.6953 119.891 10.5547 120.844 9.49219C121.797 8.41406 122.273 7.24219 122.273 5.97656C122.195 5.97656 122.125 5.97656 122.062 5.97656C122.016 5.97656 121.969 5.97656 121.922 5.97656C121.125 7.63281 120.414 9.15625 119.789 10.5469C119.492 11.0156 118.945 11.9609 118.148 13.3828C117.352 14.8047 116.742 15.5859 116.32 15.7266C116.258 13.9609 116.203 12.1953 116.156 10.4297C116.125 8.64844 116.086 6.86719 116.039 5.08594C115.961 5.08594 115.883 5.08594 115.805 5.08594C115.742 5.08594 115.688 5.08594 115.641 5.08594C115.641 7.85156 115.648 10.6172 115.664 13.3828C115.695 16.1484 115.727 18.9141 115.758 21.6797ZM121.828 23.6953C121.281 22.5078 120.742 21.3203 120.211 20.1328C119.695 18.9297 119.18 17.7344 118.664 16.5469C118.586 16.5469 118.516 16.5469 118.453 16.5469C118.391 16.5469 118.336 16.5469 118.289 16.5469C117.961 17.0156 117.859 18.1406 117.984 19.9219C118.125 21.7031 118.195 22.9141 118.195 23.5547C117.492 23.5391 116.789 23.5234 116.086 23.5078C115.383 23.4766 114.695 23.4531 114.023 23.4375C114.023 20.1562 114.016 16.8828 114 13.6172C113.984 10.3359 113.898 7.0625 113.742 3.79688C114.43 3.82812 115.125 3.85938 115.828 3.89062C116.547 3.92188 117.266 3.94531 117.984 3.96094C117.984 6.27344 117.984 7.69531 117.984 8.22656C118 8.74219 118.047 9.39844 118.125 10.1953C118.625 9.16406 119.078 8.11719 119.484 7.05469C119.906 5.97656 120.312 4.89844 120.703 3.82031C120.969 3.88281 121.266 3.99219 121.594 4.14844C121.922 4.28906 122.93 4.76562 124.617 5.57812C124.82 6.89062 124.195 8.17188 122.742 9.42188C121.305 10.6719 120.75 11.9609 121.078 13.2891C122.156 15.3828 122.875 16.7656 123.234 17.4375C123.609 18.1094 124.375 19.4141 125.531 21.3516C125.438 21.8672 124.922 22.3516 123.984 22.8047C123.062 23.2578 122.344 23.5547 121.828 23.6953Z" fill="#DEDCCA"/>
</svg>
