<svg width="50" height="44" viewBox="0 0 50 44" fill="none" xmlns="http://www.w3.org/2000/svg">
<path d="M44.4054 4.62661C43.2562 3.47687 41.8917 2.56481 40.39 1.94255C38.8882 1.32028 37.2785 1 35.6529 1C34.0273 1 32.4176 1.32028 30.9159 1.94255C29.4141 2.56481 28.0496 3.47687 26.9004 4.62661L24.5154 7.01161L22.1304 4.62661C19.8091 2.3053 16.6607 1.0012 13.3779 1.0012C10.0951 1.0012 6.94671 2.3053 4.6254 4.62661C2.3041 6.94792 1 10.0963 1 13.3791C1 16.6619 2.3041 19.8103 4.6254 22.1316L7.0104 24.5166L24.5154 42.0216L42.0204 24.5166L44.4054 22.1316C45.5551 20.9824 46.4672 19.6179 47.0895 18.1162C47.7117 16.6144 48.032 15.0047 48.032 13.3791C48.032 11.7535 47.7117 10.1438 47.0895 8.64206C46.4672 7.14028 45.5551 5.77581 44.4054 4.62661Z" stroke="#223125" stroke-width="2" stroke-linecap="round" stroke-linejoin="round"/>
</svg>
